<svg xmlns="http://www.w3.org/2000/svg" width="32" height="26" viewBox="0 0 32 26"><defs><style>.a,.b,.d{fill:none;}.a{stroke:#161515;stroke-width:3px;}.b{stroke:#fff;stroke-width:0.5px;}.c{stroke:none;}</style></defs><g transform="translate(-112 -80)"><g transform="translate(0 24)"><g class="a" transform="translate(112 56)"><rect class="c" width="32" height="26"/><rect class="d" x="1.5" y="1.5" width="29" height="23"/></g><line class="b" y2="3" transform="translate(120 56)"/><line class="b" x2="3" transform="translate(112 64)"/><line class="b" x2="3" transform="translate(141 64)"/><line class="b" x2="3" transform="translate(112 72)"/><line class="b" x2="3" transform="translate(141 72)"/><line class="b" y2="3" transform="translate(120 79)"/><line class="b" y2="3" transform="translate(128 56)"/><line class="b" y2="3" transform="translate(128 79)"/><line class="b" y2="3" transform="translate(136 56)"/><line class="b" y2="3" transform="translate(136 79)"/></g><g transform="translate(0 24)"><g class="a" transform="translate(112 56)"><rect class="c" width="32" height="26"/><rect class="d" x="1.5" y="1.5" width="29" height="23"/></g><line class="b" y2="3" transform="translate(120 56)"/><line class="b" x2="3" transform="translate(112 64)"/><line class="b" x2="3" transform="translate(141 64)"/><line class="b" x2="3" transform="translate(112 72)"/><line class="b" x2="3" transform="translate(141 72)"/><line class="b" y2="3" transform="translate(120 79)"/><line class="b" y2="3" transform="translate(128 56)"/><line class="b" y2="3" transform="translate(128 79)"/><line class="b" y2="3" transform="translate(136 56)"/><line class="b" y2="3" transform="translate(136 79)"/></g></g></svg>