<svg xmlns="http://www.w3.org/2000/svg" width="32" height="26" viewBox="0 0 32 26"><defs><style>.a,.b,.f{fill:none;}.a,.b{stroke:#7e7e7e;}.a,.c{stroke-width:2px;}.c{fill:#fff;stroke:#161515;}.d{fill:#161515;}.e{stroke:none;}</style></defs><g transform="translate(-208 -128)"><g transform="translate(48 8)"><g class="a" transform="translate(160 120)"><rect class="e" width="32" height="26"/><rect class="f" x="1" y="1" width="30" height="24"/></g><line class="b" y2="8" transform="translate(176 120)"/><line class="b" y2="16" transform="translate(184 128)"/><line class="b" y2="8" transform="translate(172 136)"/><line class="b" y2="8" transform="translate(170 136)"/><line class="b" y2="8" transform="translate(168 136)"/><line class="b" y2="8" transform="translate(166 136)"/><line class="b" y2="8" transform="translate(164 136)"/><line class="b" y2="3" transform="translate(176 133)"/><line class="b" x2="14" transform="translate(162 136)"/><line class="b" x2="14" transform="translate(176 128)"/></g><g transform="matrix(0.788, -0.616, 0.616, 0.788, -85.026, 168.664)"><g transform="translate(253 157)"><g class="c" transform="translate(0 0)"><circle class="e" cx="6.904" cy="6.904" r="6.904"/><circle class="f" cx="6.904" cy="6.904" r="5.904"/></g></g><path class="d" d="M0,0H3.945a0,0,0,0,1,0,0V6.9A1.973,1.973,0,0,1,1.973,8.876h0A1.973,1.973,0,0,1,0,6.9V0A0,0,0,0,1,0,0Z" transform="translate(257.931 171.794)"/></g></g></svg>