<?xml version="1.0" ?><!DOCTYPE svg  PUBLIC '-//W3C//DTD SVG 1.1//EN'  'http://www.w3.org/Graphics/SVG/1.1/DTD/svg11.dtd'><svg enable-background="new 410.077 -0.921 23.95 36.565" height="36.565px" id="Layer_1" version="1.1" viewBox="410.077 -0.921 23.95 36.565" width="23.95px" xml:space="preserve" xmlns="http://www.w3.org/2000/svg" xmlns:xlink="http://www.w3.org/1999/xlink"><g><g><path d="M424.877,31.823c-0.382,0-0.709-0.291-0.746-0.68c-0.039-0.412,0.264-0.778,0.677-0.817l7.72-0.732V0.676    c-2.965-0.004-6.543-0.025-10.101-0.049c-3.811-0.023-7.598-0.048-10.58-0.048c-0.414,0-0.75-0.336-0.75-0.75    s0.336-0.75,0.75-0.75c2.984,0,6.775,0.023,10.591,0.048c3.858,0.024,7.742,0.049,10.84,0.049c0.414,0,0.75,0.337,0.75,0.75    v30.351c0,0.387-0.294,0.71-0.68,0.747l-8.398,0.798C424.925,31.822,424.901,31.823,424.877,31.823z"/></g><g><path d="M424.421,35.644c-0.067,0-0.135-0.01-0.2-0.027l-13.59-3.771c-0.325-0.091-0.55-0.387-0.55-0.724l-0.002-6.439    c-0.003-7.347-0.006-14.524,0.029-21.706c0.004-0.788,0.193-1.54,0.379-2.269c0.078-0.311,0.156-0.62,0.22-0.931    c0.043-0.217,0.181-0.404,0.375-0.511c0.193-0.104,0.424-0.122,0.632-0.041c2.305,0.896,4.42,1.653,6.465,2.388    c2.06,0.738,4.188,1.502,6.515,2.406c0.289,0.111,0.479,0.39,0.479,0.698v30.175c0,0.233-0.109,0.455-0.296,0.597    C424.744,35.591,424.583,35.644,424.421,35.644z M411.582,30.553l12.09,3.354V5.233c-2.123-0.817-4.091-1.523-5.999-2.207    c-1.813-0.65-3.683-1.321-5.694-2.091c-0.013,0.048-0.023,0.095-0.035,0.142c-0.17,0.67-0.33,1.302-0.333,1.907    c-0.035,7.179-0.032,14.354-0.029,21.697L411.582,30.553z"/></g></g></svg>