<?xml version="1.0" ?><!DOCTYPE svg  PUBLIC '-//W3C//DTD SVG 1.1//EN'  'http://www.w3.org/Graphics/SVG/1.1/DTD/svg11.dtd'><svg enable-background="new 133.334 -264.152 35.241 35.941" height="35.941px" id="Layer_1" version="1.1" viewBox="133.334 -264.152 35.241 35.941" width="35.241px" xml:space="preserve" xmlns="http://www.w3.org/2000/svg" xmlns:xlink="http://www.w3.org/1999/xlink"><g><g><path d="M134.667-228.21c-0.365,0-0.679-0.264-0.738-0.627l-0.584-3.508c-0.068-0.409,0.207-0.794,0.616-0.862    c0.405-0.067,0.795,0.208,0.862,0.617l0.475,2.854l19.105-0.843v-7.843c0-0.206,0.085-0.403,0.234-0.545    c0.148-0.141,0.348-0.216,0.557-0.204l11.881,0.66v-23.264l-31.785-0.852v24.875l13.861-0.877l-0.244-2.938    c-0.034-0.413,0.273-0.775,0.686-0.811c0.402-0.036,0.775,0.272,0.811,0.687l0.307,3.699c0.018,0.201-0.048,0.4-0.18,0.553    c-0.131,0.151-0.319,0.246-0.521,0.258l-15.422,0.976c-0.206,0.013-0.409-0.06-0.561-0.202c-0.151-0.142-0.237-0.34-0.237-0.547    v-26.444c0-0.202,0.082-0.396,0.228-0.538c0.145-0.142,0.338-0.235,0.543-0.212l33.285,0.892c0.405,0.011,0.729,0.343,0.729,0.75    v24.787c0,0.206-0.085,0.403-0.234,0.545s-0.355,0.209-0.557,0.204l-11.881-0.66v7.769c0,0.4-0.316,0.73-0.717,0.75L134.7-228.21    C134.689-228.21,134.678-228.21,134.667-228.21z"/></g><g><path d="M149.962-245.765c-0.39,0-0.72-0.302-0.747-0.698l-0.486-7.022c-0.016-0.208,0.058-0.412,0.2-0.564    c0.142-0.152,0.34-0.238,0.548-0.238h17.893c0.414,0,0.75,0.336,0.75,0.75s-0.336,0.75-0.75,0.75H150.28l0.432,6.223    c0.029,0.413-0.282,0.771-0.695,0.8C149.997-245.766,149.979-245.765,149.962-245.765z"/></g><g><path d="M149.046-249.124h-4.886c-0.414,0-0.75-0.336-0.75-0.75s0.336-0.75,0.75-0.75h4.886c0.414,0,0.75,0.336,0.75,0.75    S149.46-249.124,149.046-249.124z"/></g><g><path d="M139.579-249.124h-4.58c-0.414,0-0.75-0.336-0.75-0.75s0.336-0.75,0.75-0.75h4.58c0.414,0,0.75,0.336,0.75,0.75    S139.993-249.124,139.579-249.124z"/></g><g><path d="M150.267-257.369c-0.389,0-0.717-0.299-0.747-0.691l-0.306-3.972c-0.03-0.412,0.278-0.772,0.691-0.805    c0.402-0.031,0.772,0.278,0.805,0.691l0.305,3.968c0.031,0.413-0.277,0.774-0.689,0.806    C150.306-257.37,150.286-257.369,150.267-257.369z"/></g></g></svg>