<?xml version="1.0" ?><!DOCTYPE svg  PUBLIC '-//W3C//DTD SVG 1.1//EN'  'http://www.w3.org/Graphics/SVG/1.1/DTD/svg11.dtd'><svg enable-background="new 61.769 -265.728 37.991 39.098" height="39.098px" id="Layer_1" version="1.1" viewBox="61.769 -265.728 37.991 39.098" width="37.991px" xml:space="preserve" xmlns="http://www.w3.org/2000/svg" xmlns:xlink="http://www.w3.org/1999/xlink"><g><g><path d="M75.182-232.99c-0.058,0-0.114-0.001-0.171-0.003c-1.458-0.056-2.787-0.951-3.96-1.742    c-0.448-0.305-0.873-0.591-1.261-0.799c-0.243-0.131-0.395-0.385-0.395-0.66c0-4.848,1.436-6.955,4.957-7.279    c3.877-0.344,4.919,2.588,5.387,5.193c0.018,0.099,0.015,0.194-0.004,0.286c0.014,0.068,0.019,0.14,0.013,0.211    C79.53-234.978,77.622-232.99,75.182-232.99z M70.899-236.626c0.323,0.196,0.649,0.417,0.991,0.646    c1.055,0.712,2.146,1.447,3.177,1.487c1.704,0.074,3.024-1.335,3.187-3.406c0.002-0.032,0.008-0.063,0.014-0.095    c-0.001-0.007-0.002-0.014-0.004-0.02c-0.639-3.549-1.866-4.139-3.773-3.966C72.233-241.772,70.978-240.843,70.899-236.626z"/></g><g><path d="M91.952-245.915c-0.812,0-1.639-0.728-3.598-2.601l-1.984,2.268c-0.249,0.284-0.668,0.339-0.979,0.13l-1.781-1.188    c-0.328-0.219-0.431-0.654-0.235-0.997l1.346-2.354l-0.737-0.99l-1.892,0.601c-0.277,0.088-0.584,0.007-0.781-0.21    c-1.974-2.173-0.538-3.543,0.319-4.361c0.325-0.31,0.637-0.606,0.818-0.917l-1.908-1.609c-0.314-0.267-0.356-0.737-0.093-1.055    l2.125-2.545c0.223-0.266,0.599-0.346,0.91-0.19c0.282,0.141,0.532,0.265,0.729,0.363l4.268-3.957    c0.187-0.174,0.449-0.238,0.695-0.178c0.247,0.063,0.445,0.248,0.525,0.489l1.107,3.316l2.07-2.299    c0.232-0.257,0.612-0.322,0.916-0.156l2.604,1.417c0.191,0.104,0.329,0.287,0.375,0.5s-0.002,0.436-0.134,0.609l-1.528,2.026    c0.12,0.22,0.246,0.362,0.365,0.413c0.258,0.106,0.779-0.118,1.284-0.337c0.525-0.229,1.12-0.486,1.757-0.536    c0.405-0.041,0.763,0.266,0.805,0.671l0.309,3.009c0.025,0.243-0.069,0.482-0.253,0.643s-0.434,0.222-0.671,0.163l-0.369-0.092    l-1.229,1.725l2.339,1.668c0.179,0.128,0.293,0.329,0.312,0.549s-0.061,0.437-0.217,0.592l-2.053,2.053    c-0.174,0.176-0.423,0.254-0.667,0.207c-0.243-0.044-0.448-0.206-0.549-0.432l-0.055-0.123c-0.2-0.013-0.403-0.031-0.607-0.049    c-0.659-0.06-1.337-0.12-1.737,0.058c-0.084,0.227-0.115,0.855-0.135,1.283c-0.021,0.457-0.046,0.943-0.111,1.405    c-0.031,0.229-0.168,0.43-0.368,0.545C92.741-246.088,92.348-245.915,91.952-245.915z M88.306-250.35    c0.192,0,0.379,0.074,0.519,0.208c2.459,2.357,2.89,2.772,3.36,2.617c0.026-0.297,0.041-0.598,0.055-0.884    c0.053-1.107,0.099-2.063,0.814-2.476c0.795-0.458,1.758-0.371,2.688-0.288c0.329,0.03,0.657,0.061,0.969,0.061    c0.137,0,0.268,0.036,0.38,0.104l0.761-0.76l-1.881-1.341c-0.098-0.069-0.173-0.157-0.226-0.257    c-0.028-0.015-0.054-0.03-0.081-0.05c-0.337-0.241-0.416-0.709-0.175-1.046l1.92-2.689c0.145-0.203,0.333-0.316,0.62-0.314    l-0.115-1.115c-0.185,0.07-0.373,0.151-0.559,0.232c-0.755,0.328-1.61,0.7-2.46,0.345c-0.582-0.243-1.024-0.772-1.354-1.622    c-0.094-0.242-0.056-0.515,0.102-0.723l1.271-1.688l-1.32-0.718l-2.536,2.815c-0.18,0.198-0.447,0.287-0.71,0.231    c-0.262-0.055-0.475-0.244-0.559-0.497l-1.146-3.434l-3.795,3.519c-0.229,0.214-0.569,0.263-0.851,0.119l-0.657-0.328    l-1.267,1.519l1.738,1.466c0.207,0.174,0.304,0.446,0.254,0.711c-0.174,0.927-0.827,1.55-1.403,2.1    c-0.812,0.775-1.149,1.099-0.548,1.905l1.922-0.61c0.304-0.1,0.638,0.01,0.829,0.268l1.349,1.813    c0.179,0.239,0.197,0.562,0.05,0.819l-1.242,2.172l0.65,0.435l2.068-2.363c0.135-0.154,0.327-0.247,0.532-0.256    C88.284-250.35,88.295-250.35,88.306-250.35z"/></g><g><path d="M69.981-226.63c-0.175,0-0.347-0.062-0.482-0.175l-2.66-2.232c-0.261-0.219-0.341-0.588-0.194-0.896l1.374-2.893    c-0.541-0.714-1.229-0.7-2.379-0.608c-0.688,0.054-1.4,0.108-2.117-0.09c-0.201-0.057-0.37-0.194-0.466-0.38l-1.203-2.342    c-0.186-0.358-0.053-0.8,0.301-0.997l3.093-1.732c-0.022-0.104-0.045-0.211-0.067-0.318c-0.102-0.484-0.228-1.09-0.445-1.27    c-1.178-0.97-1.692-1.844-1.619-2.75c0.097-1.201,1.243-2.024,2.352-2.67c0.22-0.128,0.486-0.137,0.714-0.023l2.511,1.255    c1.021-1.006,1.041-2.158,0.095-3.888c-0.102-0.188-0.12-0.408-0.049-0.608c0.07-0.199,0.222-0.361,0.418-0.442l3.146-1.315    c0.188-0.079,0.401-0.077,0.589,0.004c0.188,0.082,0.333,0.236,0.403,0.427l1.572,4.25l3.066-3.842    c0.229-0.287,0.634-0.365,0.954-0.186l3.446,1.938c0.192,0.108,0.327,0.295,0.369,0.512c0.042,0.216-0.014,0.439-0.151,0.611    l-1.888,2.354l0.887,1.452l3.721-0.726c0.219-0.044,0.446,0.016,0.621,0.158c0.173,0.142,0.272,0.354,0.272,0.579v3.92    c0,0.327-0.211,0.616-0.521,0.715l-2.913,0.928l3.362,2.073c0.172,0.105,0.292,0.274,0.338,0.47    c0.045,0.196,0.01,0.401-0.099,0.571l-2.344,3.682c-0.115,0.181-0.3,0.303-0.51,0.338c-0.212,0.036-0.426-0.021-0.593-0.155    c-0.72-0.577-1.927-1.548-2.591-1.414c-0.073,0.015-0.285,0.056-0.544,0.449v4.438c0,0.414-0.336,0.75-0.75,0.75h-3.45    c-0.335,0-0.629-0.222-0.721-0.544l-0.672-2.356h-1.682l-1.88,2.661c-0.121,0.172-0.31,0.284-0.518,0.312    C70.045-226.632,70.014-226.63,69.981-226.63z M76.116-228.208h2.136v-3.896c0-0.128,0.033-0.254,0.096-0.366    c0.426-0.762,0.984-1.215,1.661-1.347c1.034-0.203,2.087,0.396,3.158,1.201l1.492-2.343l-4.105-2.529    c-0.25-0.154-0.388-0.439-0.352-0.73s0.238-0.534,0.517-0.623l3.947-1.258v-2.462l-3.338,0.649    c-0.308,0.063-0.62-0.078-0.784-0.345l-1.433-2.346c-0.165-0.271-0.144-0.614,0.055-0.86l1.665-2.076l-2.121-1.191l-3.497,4.382    c-0.169,0.212-0.438,0.316-0.706,0.271c-0.267-0.043-0.489-0.226-0.584-0.479l-1.761-4.763l-1.689,0.707    c0.931,2.139,0.579,3.857-1.063,5.238c-0.183,0.153-0.416,0.204-0.635,0.16c-0.158,0.033-0.331,0.015-0.487-0.063l-2.404-1.201    c-0.814,0.513-1.24,0.945-1.269,1.287c-0.028,0.354,0.354,0.876,1.077,1.471c0.626,0.515,0.804,1.369,0.961,2.122    c0.055,0.267,0.107,0.529,0.184,0.758c0.113,0.341-0.031,0.714-0.345,0.89l-2.969,1.663l0.708,1.377    c0.393,0.052,0.835,0.017,1.297-0.02c1.238-0.096,2.937-0.23,4.006,1.685c0.119,0.212,0.127,0.469,0.022,0.688l-1.305,2.744    l1.591,1.335l1.635-2.313c0.141-0.199,0.369-0.316,0.612-0.316h2.637c0.335,0,0.629,0.222,0.721,0.544L76.116-228.208z"/></g><g><path d="M90.286-252.472c-0.953,0-3.063-0.387-3.615-1.597c-1.213-2.658,0.928-3.636,2.206-4.22    c0.263-0.12,0.523-0.237,0.763-0.368c0.356-0.193,0.807-0.064,1.008,0.289c1.037,0.343,1.739,0.872,2.089,1.576    c0.307,0.618,0.321,1.319,0.042,2.084c-0.291,0.8-1.368,2.23-2.475,2.235C90.297-252.472,90.291-252.472,90.286-252.472z     M89.854-257.087c-0.117,0.055-0.235,0.109-0.354,0.164c-1.639,0.749-1.997,1.065-1.464,2.232c0.128,0.272,1.259,0.72,2.245,0.72    c0.005,0,0.01,0,0.016,0c0.227-0.045,0.87-0.693,1.072-1.249c0.135-0.369,0.144-0.665,0.024-0.903    c-0.169-0.339-0.636-0.642-1.313-0.85C89.996-256.999,89.92-257.038,89.854-257.087z"/></g></g></svg>