<?xml version="1.0" ?><!DOCTYPE svg  PUBLIC '-//W3C//DTD SVG 1.1//EN'  'http://www.w3.org/Graphics/SVG/1.1/DTD/svg11.dtd'><svg enable-background="new 132.441 -68.333 37.027 33.869" height="33.869px" id="Layer_1" version="1.1" viewBox="132.441 -68.333 37.027 33.869" width="37.027px" xml:space="preserve" xmlns="http://www.w3.org/2000/svg" xmlns:xlink="http://www.w3.org/1999/xlink"><g><g><path d="M168.718-34.464h-35.526c-0.414,0-0.75-0.336-0.75-0.75v-32.369c0-0.414,0.336-0.75,0.75-0.75h24.977    c0.385,0,0.706,0.29,0.746,0.672l0.826,7.939c0.043,0.412-0.256,0.781-0.668,0.824c-0.416,0.041-0.781-0.258-0.824-0.668    l-0.756-7.269h-23.551v22.319h33.983c0.388,0,0.712,0.295,0.747,0.681l0.793,8.55c0.021,0.21-0.05,0.419-0.191,0.574    C169.13-34.553,168.929-34.464,168.718-34.464z M133.941-35.964h33.955l-0.654-7.05h-33.301V-35.964z"/></g><g><path d="M168.003-50.084c-0.006,0-0.013,0-0.019,0l-34.355-0.87c-0.414-0.011-0.74-0.354-0.73-0.769    c0.011-0.415,0.395-0.732,0.769-0.731l33.586,0.852v-6.57c-1.119-0.072-2.229-0.154-3.333-0.235    c-2.959-0.219-5.754-0.425-8.596-0.441c-5.174-0.033-10.441,0.063-15.534,0.155c-2.146,0.038-4.292,0.077-6.437,0.107    c-0.004,0-0.007,0-0.012,0c-0.409,0-0.743-0.329-0.75-0.739c-0.006-0.414,0.325-0.755,0.74-0.761    c2.144-0.03,4.287-0.069,6.432-0.107c5.102-0.094,10.379-0.191,15.57-0.155c2.894,0.018,5.712,0.226,8.697,0.446    c1.328,0.098,2.666,0.195,4.017,0.276c0.396,0.024,0.705,0.354,0.705,0.749v8.045c0,0.202-0.082,0.396-0.227,0.537    C168.387-50.16,168.199-50.084,168.003-50.084z"/></g><g><path d="M154.414-50.648c-0.414,0-0.75-0.336-0.75-0.75v-7.636c0-0.414,0.336-0.75,0.75-0.75s0.75,0.336,0.75,0.75v7.636    C155.164-50.984,154.828-50.648,154.414-50.648z"/></g><g><path d="M139.451-35.074c-0.414,0-0.75-0.336-0.75-0.75v-7.328c0-0.414,0.336-0.75,0.75-0.75s0.75,0.336,0.75,0.75v7.328    C140.201-35.41,139.865-35.074,139.451-35.074z"/></g><g><path d="M154.108-35.38c-0.399,0-0.731-0.313-0.749-0.717l-0.308-7.024c-0.018-0.413,0.304-0.764,0.718-0.78    c0.431-0.052,0.764,0.303,0.781,0.717l0.308,7.021c0.018,0.414-0.303,0.766-0.716,0.782C154.131-35.38,154.12-35.38,154.108-35.38    z"/></g><g><path d="M139.756-51.26c-0.011,0-0.021,0-0.032-0.001c-0.414-0.018-0.734-0.368-0.718-0.781l0.306-7.022    c0.018-0.414,0.348-0.754,0.781-0.718c0.414,0.019,0.734,0.368,0.718,0.781l-0.306,7.023    C140.487-51.574,140.155-51.26,139.756-51.26z"/></g><g><path d="M145.558-59.504c-0.414,0-0.75-0.336-0.75-0.75v-6.719c0-0.414,0.336-0.75,0.75-0.75s0.75,0.336,0.75,0.75v6.719    C146.308-59.84,145.972-59.504,145.558-59.504z"/></g><g><path d="M158.384-43.625c-0.413,0-0.75-0.336-0.75-0.75v-6.106c0-0.414,0.337-0.75,0.75-0.75c0.414,0,0.75,0.336,0.75,0.75v6.106    C159.134-43.961,158.798-43.625,158.384-43.625z"/></g><g><path d="M145.559-43.625c-0.014,0-0.025,0-0.038-0.001c-0.414-0.021-0.732-0.373-0.711-0.786l0.305-6.106    c0.021-0.414,0.388-0.74,0.787-0.712c0.414,0.021,0.731,0.373,0.711,0.786l-0.305,6.106    C146.287-43.937,145.956-43.625,145.559-43.625z"/></g></g></svg>