<?xml version="1.0" ?><!DOCTYPE svg  PUBLIC '-//W3C//DTD SVG 1.1//EN'  'http://www.w3.org/Graphics/SVG/1.1/DTD/svg11.dtd'><svg enable-background="new -5.039 58.704 34.939 36.557" height="36.557px" id="Layer_1" version="1.1" viewBox="-5.039 58.704 34.939 36.557" width="34.939px" xml:space="preserve" xmlns="http://www.w3.org/2000/svg" xmlns:xlink="http://www.w3.org/1999/xlink"><g><g><path d="M8.69,90.893h-9.744c-0.405,0-0.737-0.321-0.75-0.728l-0.854-27.137c-0.007-0.219,0.083-0.431,0.245-0.578    c0.162-0.146,0.38-0.219,0.6-0.188l10.598,1.334c0.411,0.052,0.702,0.427,0.65,0.838c-0.002,0.02-0.006,0.039-0.011,0.059    c0.011,0.049,0.017,0.1,0.017,0.152v25.498C9.44,90.557,9.104,90.893,8.69,90.893z M-0.328,89.393H7.94V65.001l-9.07-1.142    L-0.328,89.393z"/></g><g><path d="M-4.289,95.26c-0.192,0-0.379-0.073-0.519-0.209c-0.147-0.142-0.231-0.337-0.231-0.541V59.454    c0-0.414,0.336-0.75,0.75-0.75h16.644c0.052,0,0.104,0.005,0.152,0.017c0.05-0.012,0.102-0.017,0.153-0.017h16.49    c0.414,0,0.75,0.336,0.75,0.75v33.677c0,0.402-0.317,0.732-0.719,0.749l-33.438,1.38C-4.268,95.26-4.278,95.26-4.289,95.26z     M-3.539,60.204v33.525L28.4,92.411V60.204H12.66c-0.052,0-0.104-0.005-0.153-0.016c-0.049,0.011-0.101,0.016-0.152,0.016H-3.539z    "/></g><g><path d="M26.249,90.893H16.33c-0.408,0-0.741-0.326-0.75-0.734l-0.311-14.505c-0.001-0.058,0.004-0.113,0.016-0.168    c-0.01-0.049-0.016-0.102-0.016-0.152c0-0.414,0.336-0.75,0.75-0.75h10.229c0.414,0,0.75,0.336,0.75,0.75v14.811    C26.999,90.557,26.663,90.893,26.249,90.893z M17.063,89.393h8.436V76.083h-8.72L17.063,89.393z"/></g><g><path d="M13.27,94.1c-0.373,0-0.696-0.277-0.743-0.657c-0.032-0.252-0.07-0.504-0.109-0.756c-0.087-0.569-0.178-1.158-0.19-1.765    c-0.174-8.229-0.335-16.46-0.495-24.688l-0.126-6.461c-0.008-0.414,0.32-0.757,0.734-0.766c0.374,0.01,0.758,0.32,0.766,0.735    l0.126,6.461c0.161,8.229,0.321,16.457,0.496,24.687c0.011,0.507,0.09,1.021,0.174,1.567c0.041,0.267,0.082,0.531,0.115,0.798    c0.051,0.411-0.24,0.785-0.651,0.837C13.332,94.098,13.301,94.1,13.27,94.1z"/></g><g><path d="M26.249,70.738H16.019c-0.414,0-0.75-0.336-0.75-0.75v-6.566c0-0.052,0.005-0.104,0.016-0.151    c-0.01-0.049-0.016-0.102-0.016-0.152c0-0.414,0.336-0.75,0.75-0.75h10.229c0.414,0,0.75,0.336,0.75,0.75v6.871    C26.999,70.402,26.663,70.738,26.249,70.738z M16.769,69.238h8.729v-5.371h-8.729V69.238z"/></g></g></svg>